<svg width="512" height="512" xmlns="http://www.w3.org/2000/svg"><path d="M285.749 231.045c-.75-.958 1.95-9.796 9.874-32.318 5.998-17.05 11.353-31.45 11.9-32 .954-.958 62.789-2.47 65.74-1.609.79.231 1.143 1.258.861 2.5-1.52 6.705-21.315 60.443-22.878 62.11-1.784 1.902-3.386 2.014-33.17 2.317-24.997.253-31.503.052-32.327-1zM208.773 229.228c1.53-7.648 20.977-60.633 22.848-62.25 1.829-1.582 4.859-1.75 31.354-1.75 16.132 0 29.577.398 29.878.885.301.487-4.215 14.55-10.035 31.25-7.786 22.34-11.233 30.959-13.044 32.614-2.437 2.227-2.763 2.25-32.031 2.25h-29.57zM129.424 231.07c0-2.385 23.116-64.297 24.283-65.039.669-.425 15.054-.78 31.967-.789 28.436-.014 30.75.115 30.75 1.707 0 3.779-21.173 61.813-23.177 63.528-1.852 1.585-4.962 1.75-32.934 1.75-22.734 0-30.89-.306-30.89-1.158zM257.246 310.193c-.652-1.956 21.04-62.32 22.897-63.716 1.25-.939 9.578-1.25 33.472-1.25 30.828 0 31.809.06 31.809 1.942 0 2-8.983 28.29-10.873 31.82-.582 1.088-3.661 3.006-6.843 4.263-13.978 5.521-28.304 13.593-43.438 24.473-3.939 2.832-4.79 3.018-15.39 3.354-8.313.264-11.327.034-11.634-.886zM182.674 310.408c-1.238-.176-2.25-.88-2.25-1.565 0-1.253 16.278-47.598 20.136-57.33 1.137-2.87 2.81-5.42 3.716-5.672.906-.25 14.807-.76 30.89-1.134 24.364-.566 29.332-.45 29.772.697.75 1.956-20.258 60.924-22.532 63.246-1.766 1.803-3.63 1.928-29.683 2-15.29.042-28.812-.067-30.05-.242zM101.863 309.928c-.292-.76.365-3.816 1.459-6.791 1.094-2.976 5.883-16.435 10.641-29.91 4.758-13.475 9.353-25.287 10.211-26.25 1.422-1.595 4.286-1.75 32.346-1.75 18.734 0 31.02.378 31.383.967.91 1.471-20.287 60.245-22.552 62.533-1.88 1.9-3.515 2.015-32.47 2.292-25.217.24-30.58.053-31.018-1.09zM226.207 349.728l.283-25.5h36.03l-7.618 8.75c-8.471 9.73-20.816 27.68-25.101 36.5-1.537 3.162-3.038 5.75-3.336 5.75-.298 0-.414-11.475-.258-25.5z" fill="#216f18"/><path d="M196.973 452.11c-25.063-8.375-48.06-21.13-67.447-37.411-72.815-61.144-93.837-164.01-50.712-248.15 30.903-60.293 85.294-97.366 154.603-105.377 13.171-1.522 43.91-.7 56.993 1.526 44.618 7.59 81.85 26.777 111.103 57.255 18.355 19.123 29.718 36.797 39.397 61.274 4.925 12.456 10.092 33.065 11.65 46.474 1.194 10.271 1.164 10.78-.694 11.868-5.048 2.955-18.275 8.29-31.442 12.683-16.358 5.458-68.007 20.302-68.594 19.714-.486-.485 5.366-17.682 25.432-74.739l16.001-45.5-124.115-.254c-68.264-.14-124.427.085-124.807.5-1.118 1.222-61.918 170.202-61.917 172.086 0 .367 28.988.668 64.417.668 35.43 0 64.682.266 65.007.59.325.325.474 30.11.333 66.19l-.257 65.6z" fill="#f9b70b"/><path d="M230.582 470.666c-3.515-14.984-4.448-27.1-3.174-41.2 4.465-49.392 30.556-88.607 78.016-117.26 21.379-12.907 41.32-20.995 78.654-31.904 55.475-16.21 72.193-24.046 91.027-42.669l8.319-8.226-.001 14.66c0 77.5-27.35 139.957-79.201 180.898-34.884 27.544-82.819 43.906-134.584 45.938l-16.285.64 1.073-2.822c2.457-6.461 10.514-20.904 15.186-27.219 6.483-8.763 11.729-14.176 25.812-26.635 17.978-15.905 24.05-20.43 52.698-39.262 32.761-21.537 50.615-34.808 62.647-46.566l9.155-8.946-8.103 6.036c-13.279 9.892-29.793 20.028-48.897 30.011-63.148 33.001-76.111 41.784-94.524 64.047-15.652 18.923-27.739 38.184-33.382 53.195l-2.339 6.223z" fill="#66bc10"/></svg>